<svg width="74" height="53" viewBox="0 0 74 53" fill="none" xmlns="http://www.w3.org/2000/svg">
    <path d="M20.5492 15.1768H26.436V52.852H14.8406V20.8854C14.8406 17.7343 17.3981 15.1768 20.5492 15.1768Z" fill="#252D7A"/>
    <path d="M14.8406 0.514648H26.4311V12.1051H20.5444C17.3932 12.1051 14.8357 9.54761 14.8357 6.39646V0.514648H14.8406Z" fill="#252D7A"/>
    <path d="M0 0.514648H11.5905V6.40141C11.5905 9.55256 9.03296 12.1101 5.88181 12.1101H0V0.514648Z" fill="#02E598"/>
    <path d="M0 15.1768H5.88676C9.03791 15.1768 11.5954 17.7343 11.5954 20.8854V26.7722H0V15.1768Z" fill="#252D7A"/>
    <path d="M32.5355 15.1768H44.126L43.6709 25.1695H43.8243C45.7288 18.0015 50.1562 14.5684 58.6945 14.5684C67.772 14.5684 73.6439 19.5251 73.6439 29.2853V52.8521H62.0534V31.8774C62.0534 26.5398 59.0012 24.1752 53.8911 24.1752C47.7916 24.1752 44.131 27.7616 44.131 34.9296V52.8521H32.5405V15.1768H32.5355Z" fill="#252D7A"/>
</svg>
