<svg width="204" height="204" viewBox="0 0 204 204" fill="none" xmlns="http://www.w3.org/2000/svg">
<rect width="204" height="204" rx="102" fill="#D9D9D9"/>
<path d="M12.4375 121.406C14.8125 120.99 16.1562 120.635 16.4688 120.344C16.8021 120.031 16.9792 119.667 17 119.25C17.0208 118.812 17.0312 118.208 17.0312 117.438L17 114.219V112.531C17 101.51 18.3958 93.3125 21.1875 87.9375C22.9583 84.4792 25.6146 81.3333 29.1562 78.5C30.8646 77.1458 32.7812 75.7604 34.9062 74.3438H34.9375C39.5833 77.4479 43 80.3125 45.1875 82.9375C47.8333 86.0833 49.7292 89.875 50.875 94.3125C52.0417 98.8542 52.625 104.906 52.625 112.469V114.219L52.5938 117.375C52.5938 118.167 52.625 118.781 52.6875 119.219C52.75 119.656 52.9375 120 53.25 120.25C53.6458 120.604 55.0625 120.99 57.5 121.406V124H40.3438V121.406C43.0729 121.094 44.7083 120.646 45.25 120.062C45.6875 119.583 45.9271 118.865 45.9688 117.906C46.0312 116.948 46.0625 116.021 46.0625 115.125V107.562H23.5938V115.125C23.5938 116.479 23.625 117.542 23.6875 118.312C23.7708 119.062 24 119.646 24.375 120.062C24.75 120.458 25.3229 120.74 26.0938 120.906C26.8646 121.073 27.9479 121.24 29.3438 121.406V124H12.4375V121.406ZM46 104.062C45.9583 98.6875 45.2083 94.25 43.75 90.75C42.2083 87.0625 39.2604 83.0625 34.9062 78.75C31.9688 81.6875 29.9062 84.1042 28.7188 86C27.5521 87.875 26.6979 89.4583 26.1562 90.75C25.6146 92.0417 25.1667 93.3854 24.8125 94.7812C24.2292 97.2396 23.8438 100.333 23.6562 104.062H46ZM88.125 87.9062C84.8958 78.3229 78.4271 72.4583 68.7188 70.3125L69.375 67.5625C78.9375 68.9792 86.1354 73.0208 90.9688 79.6875C95.3021 85.6875 97.4688 93.1354 97.4688 102.031C97.4688 109.031 95.875 114.573 92.6875 118.656C89.5 122.719 85.2292 124.75 79.875 124.75C74.75 124.75 70.5625 122.688 67.3125 118.562C64.2917 114.771 62.7812 110.271 62.7812 105.062C62.7812 99.7917 64.1875 95.2812 67 91.5312C70.1042 87.4062 74.3333 85.3438 79.6875 85.3438C83 85.3438 85.8125 86.1979 88.125 87.9062ZM90.3438 102.812C90.3438 93.4167 86.9896 88.7188 80.2812 88.7188C76.5104 88.7188 73.7708 90.4167 72.0625 93.8125C70.6458 96.5625 69.9375 100.344 69.9375 105.156C69.9375 112.281 71.6667 117.167 75.125 119.812C76.4167 120.792 78.0833 121.281 80.125 121.281C82.1875 121.281 83.8958 120.812 85.25 119.875C86.6042 118.938 87.6562 117.646 88.4062 116C89.6979 113.146 90.3438 108.75 90.3438 102.812ZM141.688 92.0312C141.792 90.7812 141.844 89.7917 141.844 89.0625C141.844 87.5 141.677 86.1771 141.344 85.0938C141.031 83.9896 140.469 83.0729 139.656 82.3438C138.844 81.5938 137.896 80.9688 136.812 80.4688C134.562 79.4479 132.25 78.9375 129.875 78.9375C127.521 78.9375 125.521 79.2396 123.875 79.8438C122.229 80.4271 120.781 81.2292 119.531 82.25C118.302 83.2708 117.25 84.4792 116.375 85.875C115.5 87.2708 114.792 88.7708 114.25 90.375C113.188 93.4375 112.656 96.8542 112.656 100.625C112.656 105.792 114.052 110.25 116.844 114C118.823 116.625 121.51 118.479 124.906 119.562C126.635 120.125 128.427 120.406 130.281 120.406C132.135 120.406 133.729 120.302 135.062 120.094C136.396 119.865 137.646 119.521 138.812 119.062C141.146 118.188 143.292 116.792 145.25 114.875L146.812 116.969C145.208 119.365 142.938 121.271 140 122.688C137.083 124.083 133.562 124.781 129.438 124.781C121.812 124.781 115.792 122.312 111.375 117.375C107.333 112.812 105.312 107.156 105.312 100.406C105.312 96.1771 106.229 92.1875 108.062 88.4375C111.021 82.4167 115.75 78.4375 122.25 76.5C124.479 75.8542 126.51 75.5312 128.344 75.5312C130.177 75.5312 131.51 75.5833 132.344 75.6875C133.177 75.7708 133.938 75.8958 134.625 76.0625C135.312 76.2083 135.938 76.375 136.5 76.5625L138.094 77.0938C139.906 77.7188 141.333 78.0312 142.375 78.0312C143.417 78.0312 144.573 77.1771 145.844 75.4688H148.812L144.688 92.0312H141.688ZM168.75 103.75C169.625 103.917 170.802 104 172.281 104C173.781 104 175.156 103.688 176.406 103.062C177.677 102.438 178.708 101.562 179.5 100.438C181.021 98.2708 181.781 95.2083 181.781 91.25C181.781 87.4375 181.292 84.6042 180.312 82.75C178.938 80.1875 176.281 78.9062 172.344 78.9062C167.51 78.9062 164.854 80.0833 164.375 82.4375C164.229 83.1667 164.156 83.9583 164.156 84.8125V115.75C164.156 116.958 164.219 117.896 164.344 118.562C164.469 119.229 164.74 119.74 165.156 120.094C165.573 120.448 166.177 120.698 166.969 120.844C167.781 120.969 168.865 121.104 170.219 121.25L171.938 121.438V124H152.438V121.438C152.542 121.396 152.698 121.375 152.906 121.375C153.115 121.354 153.479 121.312 154 121.25C154.542 121.167 155.094 121.052 155.656 120.906C156.219 120.76 156.667 120.5 157 120.125C157.562 119.479 157.844 118.021 157.844 115.75V84.0938C157.844 82.0729 157.604 80.8229 157.125 80.3438C156.667 79.8646 156.073 79.5312 155.344 79.3438C154.635 79.1562 153.667 79.0104 152.438 78.9062V76.1875H160.562C162.583 76.1875 164.604 76.0729 166.625 75.8438C168.667 75.6146 171 75.5 173.625 75.5C176.271 75.5 178.625 75.9271 180.688 76.7812C182.75 77.6146 184.385 78.7396 185.594 80.1562C187.76 82.6979 188.844 86.2708 188.844 90.875C188.844 95.5417 187.615 99.3333 185.156 102.25C182.323 105.604 178.146 107.281 172.625 107.281C171.354 107.281 169.885 107.073 168.219 106.656L168.75 103.75Z" fill="#561D66"/>
<path d="M35 76.0102C42 69.0123 58.5 66.9993 69.5 69.0116" stroke="#561D66" stroke-width="3"/>
<path d="M75 122.002C93 129 124 127.509 137.5 122.014" stroke="#561D66" stroke-width="3"/>
<path d="M144.5 117.5C151.5 112.501 153.5 102.5 169.5 105.5" stroke="#561D66" stroke-width="3"/>
</svg>
